<?xml version="1.0" encoding="UTF-8"?>
<!DOCTYPE svg PUBLIC "-//W3C//DTD SVG 1.1//EN" "http://www.w3.org/Graphics/SVG/1.1/DTD/svg11.dtd">
<!-- Creator: CorelDRAW X7 -->
<svg xmlns="http://www.w3.org/2000/svg" xml:space="preserve" width="1000px" height="1153px" version="1.1" shape-rendering="geometricPrecision" text-rendering="geometricPrecision" image-rendering="optimizeQuality" fill-rule="evenodd" clip-rule="evenodd"
viewBox="0 0 1000 1153"
 xmlns:xlink="http://www.w3.org/1999/xlink">
 <g id="图层_x0020_1">
  <metadata id="CorelCorpID_0Corel-Layer"/>
  <g id="_2290008855744">
   <rect fill="#E4EAF2" width="1000" height="1153"/>
   <g>
    <rect fill="#747F90" x="162" y="65" width="117" height="105" rx="4" ry="3"/>
    <rect fill="#596578" x="170" y="72" width="101.124" height="90.6498"/>
    <rect fill="#BCD6E3" transform="matrix(6.53921 3.83984 -4.741 8.07385 240.081 94.5011)" width="0.269291" height="0.928345" rx="90" ry="90"/>
    <rect fill="#BCD6E3" transform="matrix(4.95454 5.74091 -7.08822 6.11729 250.458 102.717)" width="0.269291" height="0.928345" rx="90" ry="90"/>
    <rect fill="#BCD6E3" transform="matrix(2.84215 7.03049 -8.68044 3.50915 257.637 113.836)" width="0.269291" height="0.928345" rx="90" ry="90"/>
    <rect fill="#BCD6E3" transform="matrix(0.427017 7.57121 -9.34806 0.52723 260.853 126.675)" width="0.269291" height="0.928345" rx="90" ry="90"/>
    <rect fill="#BCD6E3" transform="matrix(0.609006 -7.55875 9.33267 0.751929 179.942 127.739)" width="0.269291" height="0.928345" rx="90" ry="90"/>
    <rect fill="#BCD6E3" transform="matrix(3.01043 -6.96009 8.59352 3.71693 182.819 114.82)" width="0.269291" height="0.928345" rx="90" ry="90"/>
    <rect fill="#BCD6E3" transform="matrix(5.0912 -5.62008 6.93903 6.28601 189.702 103.516)" width="0.269291" height="0.928345" rx="90" ry="90"/>
    <rect fill="#BCD6E3" transform="matrix(6.62968 -3.68144 4.54542 8.18555 199.86 95.0301)" width="0.269291" height="0.928345" rx="90" ry="90"/>
    <rect fill="#BCD6E3" transform="matrix(7.46199 -1.35068 1.66766 9.21319 212.208 90.2666)" width="0.269291" height="0.928345" rx="90" ry="90"/>
    <rect fill="#BCD6E3" transform="matrix(7.49949 1.12396 -1.38773 9.25949 225.433 89.733)" width="0.269291" height="0.928345" rx="90" ry="90"/>
    <polygon fill="#BCD6E3" points="218,139 221,104 225,139 "/>
    <path fill="#667182" d="M229 135c1,1 2,3 3,5l-1 0 -20 0c0,-2 1,-4 3,-6 4,-4 11,-4 15,1z"/>
    <rect fill="#384252" x="170" y="140" width="101.124" height="22.0657"/>
    <rect fill="#747F90" x="443" y="65" width="117" height="105" rx="4" ry="3"/>
    <rect fill="#596578" x="451" y="72" width="101.124" height="90.6498"/>
    <rect fill="#BCD6E3" transform="matrix(6.53921 3.83984 -4.741 8.07385 521.366 94.5011)" width="0.269291" height="0.928345" rx="90" ry="90"/>
    <rect fill="#BCD6E3" transform="matrix(4.95454 5.74091 -7.08822 6.11729 531.743 102.717)" width="0.269291" height="0.928345" rx="90" ry="90"/>
    <rect fill="#BCD6E3" transform="matrix(2.84215 7.03049 -8.68044 3.50915 538.921 113.836)" width="0.269291" height="0.928345" rx="90" ry="90"/>
    <rect fill="#BCD6E3" transform="matrix(0.427017 7.57121 -9.34806 0.52723 542.137 126.675)" width="0.269291" height="0.928345" rx="90" ry="90"/>
    <rect fill="#BCD6E3" transform="matrix(0.609006 -7.55875 9.33267 0.751929 461.226 127.739)" width="0.269291" height="0.928345" rx="90" ry="90"/>
    <rect fill="#BCD6E3" transform="matrix(3.01043 -6.96009 8.59352 3.71693 464.103 114.82)" width="0.269291" height="0.928345" rx="90" ry="90"/>
    <rect fill="#BCD6E3" transform="matrix(5.0912 -5.62008 6.93903 6.28601 470.987 103.516)" width="0.269291" height="0.928345" rx="90" ry="90"/>
    <rect fill="#BCD6E3" transform="matrix(6.62968 -3.68144 4.54542 8.18555 481.144 95.0301)" width="0.269291" height="0.928345" rx="90" ry="90"/>
    <rect fill="#BCD6E3" transform="matrix(7.46199 -1.35068 1.66766 9.21319 493.492 90.2666)" width="0.269291" height="0.928345" rx="90" ry="90"/>
    <rect fill="#BCD6E3" transform="matrix(7.49949 1.12396 -1.38773 9.25949 506.717 89.733)" width="0.269291" height="0.928345" rx="90" ry="90"/>
    <polygon fill="#BCD6E3" points="499,139 502,104 506,139 "/>
    <path fill="#667182" d="M510 135c2,1 3,3 3,5l-1 0 -20 0c0,-2 1,-4 3,-6 5,-4 11,-4 15,1z"/>
    <rect fill="#384252" x="451" y="140" width="101.124" height="22.0657"/>
    <rect fill="#747F90" x="723" y="65" width="117" height="105" rx="4" ry="3"/>
    <rect fill="#596578" x="731" y="72" width="101.124" height="90.6498"/>
    <rect fill="#BCD6E3" transform="matrix(6.53921 3.83984 -4.741 8.07385 800.78 94.5011)" width="0.269291" height="0.928345" rx="90" ry="90"/>
    <rect fill="#BCD6E3" transform="matrix(4.95454 5.74091 -7.08822 6.11729 811.156 102.717)" width="0.269291" height="0.928345" rx="90" ry="90"/>
    <rect fill="#BCD6E3" transform="matrix(2.84215 7.03049 -8.68044 3.50915 818.335 113.836)" width="0.269291" height="0.928345" rx="90" ry="90"/>
    <rect fill="#BCD6E3" transform="matrix(0.427017 7.57121 -9.34806 0.52723 821.551 126.675)" width="0.269291" height="0.928345" rx="90" ry="90"/>
    <rect fill="#BCD6E3" transform="matrix(0.609006 -7.55875 9.33267 0.751929 740.64 127.739)" width="0.269291" height="0.928345" rx="90" ry="90"/>
    <rect fill="#BCD6E3" transform="matrix(3.01043 -6.96009 8.59352 3.71693 743.517 114.82)" width="0.269291" height="0.928345" rx="90" ry="90"/>
    <rect fill="#BCD6E3" transform="matrix(5.0912 -5.62008 6.93903 6.28601 750.401 103.516)" width="0.269291" height="0.928345" rx="90" ry="90"/>
    <rect fill="#BCD6E3" transform="matrix(6.62968 -3.68144 4.54542 8.18555 760.558 95.0301)" width="0.269291" height="0.928345" rx="90" ry="90"/>
    <rect fill="#BCD6E3" transform="matrix(7.46199 -1.35068 1.66766 9.21319 772.906 90.2666)" width="0.269291" height="0.928345" rx="90" ry="90"/>
    <rect fill="#BCD6E3" transform="matrix(7.49949 1.12396 -1.38773 9.25949 786.131 89.733)" width="0.269291" height="0.928345" rx="90" ry="90"/>
    <polygon fill="#BCD6E3" points="778,139 782,104 785,139 "/>
    <path fill="#667182" d="M790 135c1,1 2,3 2,5l-1 0 -20 0c1,-2 2,-4 4,-6 4,-4 11,-4 15,1z"/>
    <rect fill="#384252" x="731" y="140" width="101.124" height="22.0657"/>
    <g>
     <rect fill="#D6BF96" x="212" y="258" width="35.2326" height="52.9206"/>
     <g>
      <circle fill="#D45752" cx="230" cy="284" r="24"/>
      <circle fill="#E62129" cx="230" cy="284" r="20"/>
     </g>
     <rect fill="#ACBAC9" x="205" y="317" width="48.7462" height="12.8778"/>
     <rect fill="#FEFEFE" x="207" y="319" width="45.2738" height="10.3695"/>
    </g>
    <rect fill="#D6BF96" x="391" y="258" width="35.2326" height="52.9206"/>
    <g>
     <circle fill="#D45752" cx="409" cy="284" r="24"/>
     <circle fill="#E62129" cx="409" cy="284" r="20"/>
    </g>
    <rect fill="#ACBAC9" x="385" y="317" width="48.7462" height="12.8778"/>
    <rect fill="#FEFEFE" x="386" y="319" width="45.2738" height="10.3695"/>
    <g>
     <rect fill="#D6BF96" x="570" y="258" width="35.2326" height="52.9206"/>
     <g>
      <circle fill="#D45752" cx="588" cy="284" r="24"/>
      <circle fill="#E62129" cx="588" cy="284" r="20"/>
     </g>
     <rect fill="#ACBAC9" x="563" y="317" width="48.7462" height="12.8778"/>
     <rect fill="#FEFEFE" x="565" y="319" width="45.2738" height="10.3695"/>
    </g>
    <g>
     <rect fill="#D6BF96" x="750" y="258" width="35.2326" height="52.9206"/>
     <g>
      <circle fill="#D45752" cx="768" cy="284" r="24"/>
      <circle fill="#E62129" cx="768" cy="284" r="20"/>
     </g>
     <rect fill="#ACBAC9" x="744" y="317" width="48.7462" height="12.8778"/>
     <rect fill="#FEFEFE" x="745" y="319" width="45.2738" height="10.3695"/>
    </g>
    <g>
     <rect fill="#D6BF96" x="212" y="500" width="35.2326" height="52.9206"/>
     <g>
      <circle fill="#178524" cx="230" cy="526" r="24"/>
      <circle fill="#159C27" cx="230" cy="526" r="20"/>
     </g>
     <rect fill="#ACBAC9" x="205" y="559" width="48.7462" height="12.8778"/>
     <rect fill="#FEFEFE" x="207" y="561" width="45.2738" height="10.3695"/>
    </g>
    <g>
     <rect fill="#D6BF96" x="391" y="500" width="35.2326" height="52.9206"/>
     <g>
      <circle fill="#178524" cx="409" cy="526" r="24"/>
      <circle fill="#159C27" cx="409" cy="526" r="20"/>
     </g>
     <rect fill="#ACBAC9" x="385" y="559" width="48.7462" height="12.8778"/>
     <rect fill="#FEFEFE" x="386" y="561" width="45.2738" height="10.3695"/>
    </g>
    <g>
     <rect fill="#D6BF96" x="570" y="500" width="35.2326" height="52.9206"/>
     <g>
      <circle fill="#178524" cx="588" cy="526" r="24"/>
      <circle fill="#159C27" cx="588" cy="526" r="20"/>
     </g>
     <rect fill="#ACBAC9" x="563" y="559" width="48.7462" height="12.8778"/>
     <rect fill="#FEFEFE" x="565" y="561" width="45.2738" height="10.3695"/>
    </g>
    <g>
     <rect fill="#D6BF96" x="750" y="500" width="35.2326" height="52.9206"/>
     <g>
      <circle fill="#178524" cx="768" cy="526" r="24"/>
      <circle fill="#159C27" cx="768" cy="526" r="20"/>
     </g>
     <rect fill="#ACBAC9" x="744" y="559" width="48.7462" height="12.8778"/>
     <rect fill="#FEFEFE" x="745" y="561" width="45.2738" height="10.3695"/>
    </g>
    <g>
     <rect fill="#D6BF96" x="212" y="378" width="35.2326" height="52.9206"/>
     <g>
      <circle fill="#D45752" cx="230" cy="404" r="24"/>
      <circle fill="#E62129" cx="230" cy="404" r="20"/>
     </g>
     <rect fill="#ACBAC9" x="205" y="438" width="48.7462" height="12.8778"/>
     <rect fill="#FEFEFE" x="207" y="439" width="45.2738" height="10.3695"/>
    </g>
    <g>
     <rect fill="#D6BF96" x="391" y="378" width="35.2326" height="52.9206"/>
     <g>
      <circle fill="#D45752" cx="409" cy="404" r="24"/>
      <circle fill="#E62129" cx="409" cy="404" r="20"/>
     </g>
     <rect fill="#ACBAC9" x="385" y="438" width="48.7462" height="12.8778"/>
     <rect fill="#FEFEFE" x="386" y="439" width="45.2738" height="10.3695"/>
    </g>
    <g>
     <rect fill="#D6BF96" x="570" y="378" width="35.2326" height="52.9206"/>
     <g>
      <circle fill="#D45752" cx="588" cy="404" r="24"/>
      <circle fill="#E62129" cx="588" cy="404" r="20"/>
     </g>
     <rect fill="#ACBAC9" x="563" y="438" width="48.7462" height="12.8778"/>
     <rect fill="#FEFEFE" x="565" y="439" width="45.2738" height="10.3695"/>
    </g>
    <g>
     <rect fill="#D6BF96" x="750" y="378" width="35.2326" height="52.9206"/>
     <g>
      <circle fill="#D45752" cx="768" cy="404" r="24"/>
      <circle fill="#E62129" cx="768" cy="404" r="20"/>
     </g>
     <rect fill="#ACBAC9" x="744" y="438" width="48.7462" height="12.8778"/>
     <rect fill="#FEFEFE" x="745" y="439" width="45.2738" height="10.3695"/>
    </g>
    <g>
     <rect fill="#D6BF96" x="212" y="621" width="35.2326" height="52.9206"/>
     <g>
      <circle fill="#178524" cx="230" cy="647" r="24"/>
      <circle fill="#159C27" cx="230" cy="647" r="20"/>
     </g>
     <rect fill="#ACBAC9" x="205" y="681" width="48.7462" height="12.8778"/>
     <rect fill="#FEFEFE" x="207" y="682" width="45.2738" height="10.3695"/>
    </g>
    <g>
     <rect fill="#D6BF96" x="391" y="621" width="35.2326" height="52.9206"/>
     <g>
      <circle fill="#178524" cx="409" cy="647" r="24"/>
      <circle fill="#159C27" cx="409" cy="647" r="20"/>
     </g>
     <rect fill="#ACBAC9" x="385" y="681" width="48.7462" height="12.8778"/>
     <rect fill="#FEFEFE" x="386" y="682" width="45.2738" height="10.3695"/>
    </g>
    <g>
     <rect fill="#D6BF96" x="570" y="621" width="35.2326" height="52.9206"/>
     <g>
      <circle fill="#178524" cx="588" cy="647" r="24"/>
      <circle fill="#159C27" cx="588" cy="647" r="20"/>
     </g>
     <rect fill="#ACBAC9" x="563" y="681" width="48.7462" height="12.8778"/>
     <rect fill="#FEFEFE" x="565" y="682" width="45.2738" height="10.3695"/>
    </g>
    <g>
     <rect fill="#D6BF96" x="750" y="621" width="35.2326" height="52.9206"/>
     <g>
      <circle fill="#178524" cx="768" cy="647" r="24"/>
      <circle fill="#159C27" cx="768" cy="647" r="20"/>
     </g>
     <rect fill="#ACBAC9" x="744" y="681" width="48.7462" height="12.8778"/>
     <rect fill="#FEFEFE" x="745" y="682" width="45.2738" height="10.3695"/>
    </g>
    <g>
     <rect fill="#ACBAC9" x="886" y="549" width="33.3515" height="82.0998" rx="7" ry="4"/>
     <rect fill="#D3DCE9" x="908" y="553" width="3.65057" height="75.4026"/>
     <rect fill="#D3DCE9" x="895" y="553" width="3.65057" height="75.4026"/>
    </g>
    <polygon fill="#A5ACB7" points="88,65 92,72 97,80 92,87 88,94 80,94 71,94 67,87 63,80 67,72 71,65 80,65 "/>
    <circle fill="#3E4852" cx="80" cy="80" r="9"/>
    <path fill="#D3DCE9" fill-opacity="0.701961" d="M80 72c4,0 7,4 7,8 0,4 -3,7 -7,7 -4,0 -8,-3 -8,-7 0,-4 4,-8 8,-8z"/>
    <polygon fill="#A5ACB7" points="929,65 933,72 937,80 933,87 929,94 920,94 912,94 908,87 903,80 908,72 912,65 920,65 "/>
    <circle fill="#3E4852" cx="920" cy="80" r="9"/>
    <path fill="#D3DCE9" fill-opacity="0.701961" d="M920 72c4,0 8,4 8,8 0,4 -4,7 -8,7 -4,0 -7,-3 -7,-7 0,-4 3,-8 7,-8z"/>
    <polygon fill="#A5ACB7" points="88,1050 92,1057 97,1064 92,1072 88,1079 80,1079 71,1079 67,1072 63,1064 67,1057 71,1050 80,1050 "/>
    <circle fill="#3E4852" cx="80" cy="1064" r="9"/>
    <path fill="#D3DCE9" fill-opacity="0.701961" d="M80 1057c4,0 7,3 7,7 0,5 -3,8 -7,8 -4,0 -8,-3 -8,-8 0,-4 4,-7 8,-7z"/>
    <polygon fill="#A5ACB7" points="929,1050 933,1057 937,1064 933,1072 929,1079 920,1079 912,1079 908,1072 903,1064 908,1057 912,1050 920,1050 "/>
    <circle fill="#3E4852" cx="920" cy="1064" r="9"/>
    <path fill="#D3DCE9" fill-opacity="0.701961" d="M920 1057c4,0 8,3 8,7 0,5 -4,8 -8,8 -4,0 -7,-3 -7,-8 0,-4 3,-7 7,-7z"/>
   </g>
  </g>
 </g>
</svg>
